<svg width="53" height="52" viewBox="0 0 53 52" fill="none" xmlns="http://www.w3.org/2000/svg">
<path fill-rule="evenodd" clip-rule="evenodd" d="M45.6678 15.465C41.11 7.17795 31.7234 2.69828 22.3436 4.33381C10.2846 6.43669 2.21678 17.8462 4.33878 29.7965C6.46058 41.7469 17.9738 49.7418 30.0328 47.6391C36.67 46.4816 42.4166 42.3974 45.6512 36.5382C45.6512 36.5382 41.7106 34.0443 39.6094 33.4273C36.7482 32.587 33.6748 35.2391 33.1388 35.8719C31.799 37.4537 29.0592 38.5287 28.4346 38.6378C21.3888 39.8664 14.6618 35.1951 13.422 28.2125C12.1822 21.2302 16.896 14.564 23.9418 13.3354C26.163 12.9479 28.3846 13.1475 30.419 13.8442C32.1748 14.4455 33.6706 16.4598 35.1466 17.6063C38.1596 19.9473 41.41 17.8741 41.41 17.8741L45.6678 15.465Z" fill="#17252A"/>
<path fill-rule="evenodd" clip-rule="evenodd" d="M18.5371 25.9446C18.5371 25.0349 18.7313 24.1097 19.0829 23.2692C19.4223 22.4573 19.9433 21.7048 20.5705 21.0832C21.1975 20.4619 21.9569 19.9456 22.7763 19.609C24.7141 18.8131 27.0155 18.7023 28.7267 19.8691C29.9181 20.6813 29.8769 20.9374 31.1579 21.9983C32.5807 23.177 34.2905 23.8598 36.1515 23.8951C37.2093 23.9151 38.5165 23.6652 39.5201 23.3257C42.1383 22.4399 44.5033 20.3485 47.0693 22.8914C47.8625 23.6775 48.2513 24.5561 48.3327 25.4252C48.4067 26.2144 48.4163 25.6563 48.3327 26.5491C48.2513 27.4182 47.8625 28.2969 47.0693 29.0829C44.5033 31.6258 42.1383 29.5342 39.5201 28.6487C38.5165 28.3091 37.2093 28.0592 36.1515 28.0792C34.2905 28.1145 32.5807 28.7971 31.1579 29.9758C29.8769 31.0369 29.9181 31.2928 28.7267 32.1052C27.0155 33.272 24.7141 33.1612 22.7763 32.3653C21.9569 32.0287 21.1975 31.5124 20.5705 30.8909C19.9433 30.2695 19.4223 29.517 19.0829 28.7051C18.7313 27.8646 18.5371 26.9394 18.5371 26.0295V25.9446Z" fill="#0CAD69"/>
</svg>
