<svg width="16" height="16" viewBox="0 0 16 16" fill="none" xmlns="http://www.w3.org/2000/svg">
<mask id="mask0_689_842" style="mask-type:alpha" maskUnits="userSpaceOnUse" x="0" y="0" width="16" height="16">
<rect width="16" height="16" fill="#D9D9D9"/>
</mask>
<g mask="url(#mask0_689_842)">
<path d="M5.2167 7.99975L7.80003 10.5997C7.92226 10.722 7.98614 10.8747 7.9917 11.0581C7.99725 11.2414 7.93337 11.3997 7.80003 11.5331C7.67781 11.6553 7.52226 11.7164 7.33337 11.7164C7.14448 11.7164 6.98892 11.6553 6.8667 11.5331L3.80003 8.46641C3.73337 8.39975 3.68614 8.32753 3.65837 8.24975C3.63059 8.17197 3.6167 8.08864 3.6167 7.99975C3.6167 7.91086 3.63059 7.82753 3.65837 7.74975C3.68614 7.67197 3.73337 7.59975 3.80003 7.53308L6.8667 4.46641C6.98892 4.34419 7.1417 4.2803 7.32503 4.27475C7.50837 4.26919 7.6667 4.33308 7.80003 4.46641C7.92226 4.58864 7.98337 4.74419 7.98337 4.93308C7.98337 5.12197 7.92226 5.27753 7.80003 5.39975L5.2167 7.99975ZM9.6167 7.99975L12.2 10.5997C12.3223 10.722 12.3861 10.8747 12.3917 11.0581C12.3973 11.2414 12.3334 11.3997 12.2 11.5331C12.0778 11.6553 11.9223 11.7164 11.7334 11.7164C11.5445 11.7164 11.3889 11.6553 11.2667 11.5331L8.20003 8.46641C8.13337 8.39975 8.08614 8.32753 8.05837 8.24975C8.03059 8.17197 8.0167 8.08864 8.0167 7.99975C8.0167 7.91086 8.03059 7.82753 8.05837 7.74975C8.08614 7.67197 8.13337 7.59975 8.20003 7.53308L11.2667 4.46641C11.3889 4.34419 11.5417 4.2803 11.725 4.27475C11.9084 4.26919 12.0667 4.33308 12.2 4.46641C12.3223 4.58864 12.3834 4.74419 12.3834 4.93308C12.3834 5.12197 12.3223 5.27753 12.2 5.39975L9.6167 7.99975Z" fill="#82878C"/>
</g>
</svg>
