<svg width="16" height="16" viewBox="0 0 16 16" fill="none" xmlns="http://www.w3.org/2000/svg">
<path d="M5.75 14C4.70556 14 3.81944 13.6361 3.09167 12.9083C2.36389 12.1806 2 11.2944 2 10.25C2 9.75 2.09444 9.27222 2.28333 8.81667C2.47222 8.36111 2.74444 7.95556 3.1 7.6L7.6 3.1C7.95556 2.74444 8.36111 2.47222 8.81667 2.28333C9.27222 2.09444 9.75 2 10.25 2C11.2944 2 12.1806 2.36389 12.9083 3.09167C13.6361 3.81944 14 4.70556 14 5.75C14 6.25 13.9056 6.72778 13.7167 7.18333C13.5278 7.63889 13.2556 8.04445 12.9 8.4L8.4 12.9C8.04445 13.2556 7.63889 13.5278 7.18333 13.7167C6.72778 13.9056 6.25 14 5.75 14ZM10.1833 9.23333L11.9667 7.46667C12.1889 7.24444 12.3611 6.98333 12.4833 6.68333C12.6056 6.38333 12.6667 6.07222 12.6667 5.75C12.6667 5.08333 12.4306 4.51389 11.9583 4.04167C11.4861 3.56944 10.9167 3.33333 10.25 3.33333C9.92778 3.33333 9.61667 3.39444 9.31667 3.51667C9.01667 3.63889 8.75556 3.81111 8.53333 4.03333L6.76667 5.81667L10.1833 9.23333ZM5.75 12.6667C6.07222 12.6667 6.38333 12.6056 6.68333 12.4833C6.98333 12.3611 7.24444 12.1889 7.46667 11.9667L9.23333 10.1833L5.81667 6.76667L4.03333 8.53333C3.81111 8.75556 3.63889 9.01667 3.51667 9.31667C3.39444 9.61667 3.33333 9.92778 3.33333 10.25C3.33333 10.9167 3.56944 11.4861 4.04167 11.9583C4.51389 12.4306 5.08333 12.6667 5.75 12.6667Z" fill="#82878C"/>
</svg>
