<svg width="16" height="16" viewBox="0 0 16 16" fill="none" xmlns="http://www.w3.org/2000/svg">
<mask id="mask0_548_454" style="mask-type:alpha" maskUnits="userSpaceOnUse" x="0" y="0" width="16" height="16">
<rect width="16" height="16" fill="#D9D9D9"/>
</mask>
<g mask="url(#mask0_548_454)">
<path d="M9.24013 6.1806C8.9202 5.88353 8.3999 6.11041 8.3999 6.547V9.45378C8.3999 9.89037 8.9202 10.1173 9.24013 9.82018L10.8053 8.36679C11.0184 8.16897 11.0184 7.83181 10.8053 7.63399L9.24013 6.1806ZM3.51657 13.6004C3.20946 13.6004 2.94657 13.4911 2.7279 13.2724C2.50924 13.0537 2.3999 12.7908 2.3999 12.4837V3.51706C2.3999 3.20995 2.50924 2.94706 2.7279 2.72839C2.94657 2.50972 3.20946 2.40039 3.51657 2.40039H12.4832C12.7903 2.40039 13.0532 2.50972 13.2719 2.72839C13.4906 2.94706 13.5999 3.20995 13.5999 3.51706V12.4837C13.5999 12.7908 13.4906 13.0537 13.2719 13.2724C13.0532 13.4911 12.7903 13.6004 12.4832 13.6004H3.51657ZM5.5999 12.4004V3.60039H3.5999V12.4004H5.5999ZM6.7999 12.4004H12.3999V3.60039H6.7999V12.4004Z" fill="#82878C"/>
</g>
</svg>
