<svg width="16" height="16" viewBox="0 0 16 16" fill="none" xmlns="http://www.w3.org/2000/svg">
<path fill-rule="evenodd" clip-rule="evenodd" d="M7.59265 13.9047C7.32773 13.9047 7.09822 13.8154 6.90697 13.6369C6.71572 13.4583 6.59956 13.24 6.55989 12.9821L6.42672 12C6.29922 11.9504 6.17881 11.8909 6.06548 11.8214C5.95214 11.7519 5.84163 11.6776 5.73396 11.5981L4.8188 11.9851C4.5723 12.0941 4.32723 12.1041 4.08073 12.0149C3.83564 11.9256 3.64297 11.7669 3.50555 11.5387L2.8114 10.3184C2.67398 10.0903 2.6343 9.84714 2.6938 9.58929C2.7533 9.33129 2.88506 9.118 3.09189 8.94943L3.8739 8.35414C3.86398 8.28471 3.85972 8.21771 3.85972 8.15329V7.75143C3.85972 7.687 3.86398 7.62 3.8739 7.55057L3.09189 6.95529C2.88506 6.78672 2.7533 6.57343 2.6938 6.31543C2.6343 6.05743 2.67398 5.81443 2.8114 5.58629L3.50555 4.366C3.64297 4.13786 3.83564 3.97914 4.08073 3.88986C4.32723 3.80057 4.5723 3.81043 4.8188 3.91957L5.73396 4.30657C5.84163 4.22714 5.95497 4.15272 6.07255 4.08329C6.19155 4.01386 6.30913 3.95429 6.42672 3.90472L6.55989 2.92257C6.59956 2.66457 6.71572 2.44643 6.90697 2.26786C7.09822 2.08929 7.32773 2 7.59265 2H8.98097C9.24589 2 9.47397 2.08929 9.66663 2.26786C9.85788 2.44643 9.97406 2.66457 10.0137 2.92257L10.1455 3.90472C10.2744 3.95429 10.3948 4.01386 10.5081 4.08329C10.6201 4.15272 10.732 4.22714 10.8396 4.30657L11.7548 3.91957C11.9999 3.81043 12.2464 3.80057 12.4929 3.88986C12.738 3.97914 12.9306 4.13786 13.0681 4.366L13.7622 5.58629C13.8996 5.81443 13.9393 6.05743 13.8798 6.31543C13.8203 6.57343 13.6871 6.78672 13.4817 6.95529L12.6997 7.55057C12.7082 7.62 12.7139 7.687 12.7139 7.75143V8.15329C12.7139 8.21771 12.704 8.28471 12.6841 8.35414L13.4661 8.94943C13.673 9.118 13.8061 9.33129 13.8642 9.58929C13.9237 9.84714 13.8841 10.0903 13.7466 10.3184L13.0383 11.5387C12.9009 11.7669 12.7082 11.9256 12.4631 12.0149C12.2166 12.1041 11.9716 12.0941 11.7251 11.9851L10.8396 11.5981C10.732 11.6776 10.6186 11.7519 10.4996 11.8214C10.3821 11.8909 10.2645 11.9504 10.1455 12L10.0137 12.9821C9.97406 13.24 9.85788 13.4583 9.66663 13.6369C9.47397 13.8154 9.24589 13.9047 8.98097 13.9047H7.59265ZM7.69606 12.7143H8.86198L9.0688 11.1369C9.37339 11.0576 9.65672 10.9409 9.91739 10.7871C10.1781 10.6334 10.4161 10.4474 10.6328 10.2291L12.0934 10.8393L12.67 9.82729L11.4006 8.86014C11.4502 8.72114 11.4842 8.57486 11.5041 8.42114C11.5239 8.26728 11.5338 8.11115 11.5338 7.95229C11.5338 7.79357 11.5239 7.63729 11.5041 7.48357C11.4842 7.32986 11.4502 7.18343 11.4006 7.04457L12.67 6.07729L12.0934 5.06543L10.6328 5.69043C10.4161 5.46229 10.1781 5.27129 9.91739 5.11757C9.65672 4.96371 9.37339 4.84714 9.0688 4.76786L8.87756 3.19043H7.71164L7.5048 4.76786C7.20021 4.84714 6.91688 4.96371 6.65622 5.11757C6.39555 5.27129 6.15614 5.45729 5.94081 5.67557L4.4788 5.06543L3.90364 6.07729L5.17297 7.02972C5.12339 7.17857 5.08939 7.32729 5.06956 7.47614C5.04972 7.625 5.03981 7.78372 5.03981 7.95229C5.03981 8.11115 5.04972 8.26486 5.06956 8.41371C5.08939 8.56243 5.12339 8.71128 5.17297 8.86014L3.90364 9.82729L4.4788 10.8393L5.94081 10.2143C6.15614 10.4424 6.39555 10.6334 6.65622 10.7871C6.91688 10.9409 7.20021 11.0576 7.5048 11.1369L7.69606 12.7143ZM8.2868 5.93357C9.3918 5.93357 10.2886 6.83814 10.2886 7.95229C10.2886 9.06657 9.3918 9.97114 8.2868 9.97114C7.1818 9.97114 6.28505 9.06657 6.28505 7.95229C6.28505 6.83814 7.1818 5.93357 8.2868 5.93357ZM8.2868 7.05286C8.77838 7.05286 9.17931 7.45586 9.17931 7.95229C9.17931 8.44872 8.77838 8.85186 8.2868 8.85186C7.7938 8.85186 7.39431 8.44872 7.39431 7.95229C7.39431 7.45586 7.7938 7.05286 8.2868 7.05286Z" fill="#82878C"/>
</svg>
