<svg width="16" height="16" viewBox="0 0 16 16" fill="none" xmlns="http://www.w3.org/2000/svg">
<mask id="mask0_540_531" style="mask-type:alpha" maskUnits="userSpaceOnUse" x="0" y="0" width="16" height="16">
<rect width="16" height="16" fill="#D9D9D9"/>
</mask>
<g mask="url(#mask0_540_531)">
<path d="M7.96683 11.9997C8.20016 11.9997 8.39739 11.9191 8.5585 11.758C8.71961 11.5969 8.80016 11.3997 8.80016 11.1663C8.80016 10.933 8.71961 10.7358 8.5585 10.5747C8.39739 10.4136 8.20016 10.333 7.96683 10.333C7.7335 10.333 7.53627 10.4136 7.37516 10.5747C7.21405 10.7358 7.1335 10.933 7.1335 11.1663C7.1335 11.3997 7.21405 11.5969 7.37516 11.758C7.53627 11.9191 7.7335 11.9997 7.96683 11.9997ZM7.3832 8.93337C7.36297 9.20877 7.59069 9.43301 7.86683 9.43301H8.10016C8.37631 9.43301 8.59221 9.20765 8.63242 8.93445C8.65325 8.79292 8.68416 8.67021 8.72516 8.56634C8.8085 8.35523 9.04461 8.06634 9.4335 7.69968C9.72239 7.41079 9.95016 7.13579 10.1168 6.87467C10.2835 6.61356 10.3668 6.29967 10.3668 5.93301C10.3668 5.31079 10.1391 4.83301 9.6835 4.49967C9.22794 4.16634 8.68905 3.99967 8.06683 3.99967C7.4335 3.99967 6.91961 4.16634 6.52516 4.49967C6.25886 4.72472 6.04701 4.98014 5.88959 5.26595C5.76139 5.49873 5.89386 5.77598 6.14111 5.87338L6.28371 5.92956C6.5598 6.03832 6.87853 5.88232 7.05191 5.64151C7.08932 5.58956 7.1304 5.53672 7.17516 5.48301C7.36961 5.24967 7.66683 5.13301 8.06683 5.13301C8.42239 5.13301 8.68905 5.23023 8.86683 5.42467C9.04461 5.61912 9.1335 5.83301 9.1335 6.06634C9.1335 6.28856 9.06683 6.4969 8.9335 6.69134C8.80016 6.88579 8.6335 7.06634 8.4335 7.23301C7.94461 7.66634 7.64461 7.99412 7.5335 8.21634C7.45721 8.36892 7.40711 8.60793 7.3832 8.93337ZM8.00016 14.6663C7.07794 14.6663 6.21127 14.4913 5.40016 14.1413C4.58905 13.7913 3.8835 13.3163 3.2835 12.7163C2.6835 12.1163 2.2085 11.4108 1.8585 10.5997C1.5085 9.78856 1.3335 8.9219 1.3335 7.99967C1.3335 7.07745 1.5085 6.21079 1.8585 5.39967C2.2085 4.58856 2.6835 3.88301 3.2835 3.28301C3.8835 2.68301 4.58905 2.20801 5.40016 1.85801C6.21127 1.50801 7.07794 1.33301 8.00016 1.33301C8.92239 1.33301 9.78905 1.50801 10.6002 1.85801C11.4113 2.20801 12.1168 2.68301 12.7168 3.28301C13.3168 3.88301 13.7918 4.58856 14.1418 5.39967C14.4918 6.21079 14.6668 7.07745 14.6668 7.99967C14.6668 8.9219 14.4918 9.78856 14.1418 10.5997C13.7918 11.4108 13.3168 12.1163 12.7168 12.7163C12.1168 13.3163 11.4113 13.7913 10.6002 14.1413C9.78905 14.4913 8.92239 14.6663 8.00016 14.6663ZM8.00016 13.333C9.48905 13.333 10.7502 12.8163 11.7835 11.783C12.8168 10.7497 13.3335 9.48856 13.3335 7.99967C13.3335 6.51079 12.8168 5.24968 11.7835 4.21634C10.7502 3.18301 9.48905 2.66634 8.00016 2.66634C6.51127 2.66634 5.25016 3.18301 4.21683 4.21634C3.1835 5.24968 2.66683 6.51079 2.66683 7.99967C2.66683 9.48856 3.1835 10.7497 4.21683 11.783C5.25016 12.8163 6.51127 13.333 8.00016 13.333Z" fill="#82878C"/>
</g>
</svg>
