<svg width="16" height="16" viewBox="0 0 16 16" fill="none" xmlns="http://www.w3.org/2000/svg">
<mask id="mask0_689_845" style="mask-type:alpha" maskUnits="userSpaceOnUse" x="0" y="0" width="16" height="16">
<rect width="16" height="16" fill="#D9D9D9"/>
</mask>
<g mask="url(#mask0_689_845)">
<path d="M7.20003 7.99987L9.80003 10.5999C9.92226 10.7221 9.98337 10.8776 9.98337 11.0665C9.98337 11.2554 9.92226 11.411 9.80003 11.5332C9.67781 11.6554 9.52226 11.7165 9.33337 11.7165C9.14448 11.7165 8.98892 11.6554 8.8667 11.5332L5.80003 8.46654C5.73337 8.39987 5.68614 8.32765 5.65837 8.24987C5.63059 8.17209 5.6167 8.08876 5.6167 7.99987C5.6167 7.91098 5.63059 7.82765 5.65837 7.74987C5.68614 7.67209 5.73337 7.59987 5.80003 7.5332L8.8667 4.46654C8.98892 4.34431 9.14448 4.2832 9.33337 4.2832C9.52226 4.2832 9.67781 4.34431 9.80003 4.46654C9.92226 4.58876 9.98337 4.74431 9.98337 4.9332C9.98337 5.12209 9.92226 5.27765 9.80003 5.39987L7.20003 7.99987Z" fill="#82878C"/>
</g>
</svg>
