<svg width="16" height="16" viewBox="0 0 16 16" fill="none" xmlns="http://www.w3.org/2000/svg">
<mask id="mask0_689_843" style="mask-type:alpha" maskUnits="userSpaceOnUse" x="0" y="0" width="16" height="16">
<rect width="16" height="16" fill="#D9D9D9"/>
</mask>
<g mask="url(#mask0_689_843)">
<path d="M6.38324 7.99987L3.79991 5.39987C3.67769 5.27765 3.6138 5.12487 3.60824 4.94154C3.60269 4.7582 3.66658 4.59987 3.79991 4.46654C3.92213 4.34431 4.07769 4.2832 4.26658 4.2832C4.45547 4.2832 4.61102 4.34431 4.73324 4.46654L7.79991 7.5332C7.86658 7.59987 7.9138 7.67209 7.94158 7.74987C7.96935 7.82765 7.98324 7.91098 7.98324 7.99987C7.98324 8.08876 7.96935 8.17209 7.94158 8.24987C7.9138 8.32765 7.86658 8.39987 7.79991 8.46654L4.73324 11.5332C4.61102 11.6554 4.45824 11.7193 4.27491 11.7249C4.09158 11.7304 3.93324 11.6665 3.79991 11.5332C3.67769 11.411 3.61658 11.2554 3.61658 11.0665C3.61658 10.8776 3.67769 10.7221 3.79991 10.5999L6.38324 7.99987ZM10.7832 7.99987L8.19991 5.39987C8.07769 5.27765 8.0138 5.12487 8.00824 4.94154C8.00269 4.7582 8.06658 4.59987 8.19991 4.46654C8.32213 4.34431 8.47769 4.2832 8.66658 4.2832C8.85547 4.2832 9.01102 4.34431 9.13324 4.46654L12.1999 7.5332C12.2666 7.59987 12.3138 7.67209 12.3416 7.74987C12.3694 7.82765 12.3832 7.91098 12.3832 7.99987C12.3832 8.08876 12.3694 8.17209 12.3416 8.24987C12.3138 8.32765 12.2666 8.39987 12.1999 8.46654L9.13324 11.5332C9.01102 11.6554 8.85824 11.7193 8.67491 11.7249C8.49158 11.7304 8.33324 11.6665 8.19991 11.5332C8.07769 11.411 8.01658 11.2554 8.01658 11.0665C8.01658 10.8776 8.07769 10.7221 8.19991 10.5999L10.7832 7.99987Z" fill="#82878C"/>
</g>
</svg>
