<svg width="16" height="16" viewBox="0 0 16 16" fill="none" xmlns="http://www.w3.org/2000/svg">
<mask id="mask0_623_466" style="mask-type:alpha" maskUnits="userSpaceOnUse" x="0" y="0" width="16" height="16">
<rect width="16" height="16" fill="#D9D9D9"/>
</mask>
<g mask="url(#mask0_623_466)">
<path d="M5.2002 13.6004C4.8702 13.6004 4.5877 13.4829 4.3527 13.2479C4.1177 13.0129 4.0002 12.7304 4.0002 12.4004V4.40039H3.8002C3.6302 4.40039 3.4877 4.34322 3.3727 4.22889C3.2577 4.11456 3.2002 3.97289 3.2002 3.80389C3.2002 3.63489 3.2577 3.49206 3.3727 3.37539C3.4877 3.25872 3.6302 3.20039 3.8002 3.20039H6.4002V3.00039C6.4002 2.83039 6.4577 2.68789 6.5727 2.57289C6.6877 2.45789 6.8302 2.40039 7.0002 2.40039H9.0002C9.1702 2.40039 9.3127 2.45789 9.4277 2.57289C9.5427 2.68789 9.6002 2.83039 9.6002 3.00039V3.20039H12.2002C12.3702 3.20039 12.5127 3.25756 12.6277 3.37189C12.7427 3.48622 12.8002 3.62789 12.8002 3.79689C12.8002 3.96589 12.7427 4.10872 12.6277 4.22539C12.5127 4.34206 12.3702 4.40039 12.2002 4.40039H12.0002V12.3932C12.0002 12.7313 11.8827 13.0171 11.6477 13.2504C11.4127 13.4837 11.1302 13.6004 10.8002 13.6004H5.2002ZM10.8002 4.40039H5.2002V12.4004H10.8002V4.40039ZM7.4252 11.0279C7.54186 10.9129 7.6002 10.7704 7.6002 10.6004V6.20039C7.6002 6.03039 7.54303 5.88789 7.4287 5.77289C7.31436 5.65789 7.1727 5.60039 7.0037 5.60039C6.8347 5.60039 6.69186 5.65789 6.5752 5.77289C6.45853 5.88789 6.4002 6.03039 6.4002 6.20039V10.6004C6.4002 10.7704 6.45736 10.9129 6.5717 11.0279C6.68603 11.1429 6.8277 11.2004 6.9967 11.2004C7.1657 11.2004 7.30853 11.1429 7.4252 11.0279ZM9.4252 11.0279C9.54186 10.9129 9.6002 10.7704 9.6002 10.6004V6.20039C9.6002 6.03039 9.54303 5.88789 9.4287 5.77289C9.31436 5.65789 9.1727 5.60039 9.0037 5.60039C8.8347 5.60039 8.69186 5.65789 8.5752 5.77289C8.45853 5.88789 8.4002 6.03039 8.4002 6.20039V10.6004C8.4002 10.7704 8.45736 10.9129 8.57169 11.0279C8.68603 11.1429 8.82769 11.2004 8.9967 11.2004C9.1657 11.2004 9.30853 11.1429 9.4252 11.0279Z" fill="#82878C"/>
</g>
</svg>
