<svg width="16" height="16" viewBox="0 0 16 16" fill="none" xmlns="http://www.w3.org/2000/svg">
<path d="M7.33322 13.3337C7.14434 13.3337 6.986 13.2698 6.85822 13.142C6.73045 13.0142 6.66656 12.8559 6.66656 12.667V8.66699L2.79989 3.73366C2.63322 3.51144 2.60822 3.2781 2.72489 3.03366C2.84156 2.78921 3.04434 2.66699 3.33322 2.66699H12.6666C12.9554 2.66699 13.1582 2.78921 13.2749 3.03366C13.3916 3.2781 13.3666 3.51144 13.1999 3.73366L9.33322 8.66699V12.667C9.33322 12.8559 9.26934 13.0142 9.14156 13.142C9.01378 13.2698 8.85545 13.3337 8.66656 13.3337H7.33322ZM7.99989 8.20033L11.2999 4.00033H4.69989L7.99989 8.20033Z" fill="#82878C"/>
</svg>
