<svg width="16" height="16" viewBox="0 0 16 16" fill="none" xmlns="http://www.w3.org/2000/svg">
<mask id="mask0_548_453" style="mask-type:alpha" maskUnits="userSpaceOnUse" x="0" y="0" width="16" height="16">
<rect width="16" height="16" fill="#D9D9D9"/>
</mask>
<g mask="url(#mask0_548_453)">
<path d="M9.95968 9.82018C10.2796 10.1173 10.7999 9.88998 10.7999 9.4534C10.7999 8.42308 10.7999 7.5777 10.7999 6.54738C10.7999 6.1108 10.2796 5.88353 9.95968 6.1806L8.39448 7.63399C8.18145 7.83181 8.18145 8.16897 8.39448 8.36679L9.95968 9.82018ZM3.51657 13.6004C3.20946 13.6004 2.94657 13.4911 2.7279 13.2724C2.50924 13.0537 2.3999 12.7908 2.3999 12.4837V3.51706C2.3999 3.20995 2.50924 2.94706 2.7279 2.72839C2.94657 2.50972 3.20946 2.40039 3.51657 2.40039H12.4832C12.7903 2.40039 13.0532 2.50972 13.2719 2.72839C13.4906 2.94706 13.5999 3.20995 13.5999 3.51706V12.4837C13.5999 12.7908 13.4906 13.0537 13.2719 13.2724C13.0532 13.4911 12.7903 13.6004 12.4832 13.6004H3.51657ZM5.5999 12.4004V3.60039H3.5999V12.4004H5.5999ZM6.7999 12.4004H12.3999V3.60039H6.7999V12.4004Z" fill="#82878C"/>
</g>
</svg>
