<svg width="16" height="16" viewBox="0 0 16 16" fill="none" xmlns="http://www.w3.org/2000/svg">
<mask id="mask0_623_465" style="mask-type:alpha" maskUnits="userSpaceOnUse" x="0" y="0" width="16" height="16">
<rect width="16" height="16" fill="#D9D9D9"/>
</mask>
<g mask="url(#mask0_623_465)">
<path d="M3.5999 12.4004H4.4499L10.6999 6.15039L9.8499 5.30039L3.5999 11.5504V12.4004ZM3.0029 13.6004C2.83424 13.6004 2.69157 13.5432 2.5749 13.4287C2.45824 13.3144 2.3999 13.1726 2.3999 13.0034V11.5559C2.3999 11.3967 2.42768 11.2448 2.48324 11.1004C2.53879 10.9559 2.62768 10.8226 2.7499 10.7004L10.6999 2.75039C10.8221 2.62817 10.9546 2.53928 11.0972 2.48372C11.2398 2.42817 11.3898 2.40039 11.5472 2.40039C11.7046 2.40039 11.8555 2.42817 11.9999 2.48372C12.1443 2.53928 12.2777 2.62817 12.3999 2.75039L13.2499 3.60039C13.3721 3.72261 13.461 3.85595 13.5166 4.00039C13.5721 4.14484 13.5999 4.29228 13.5999 4.44272C13.5999 4.60328 13.572 4.75628 13.5162 4.90172C13.4605 5.04717 13.3717 5.18006 13.2499 5.30039L5.2999 13.2504C5.17768 13.3726 5.04462 13.4615 4.90074 13.5171C4.75685 13.5726 4.60551 13.6004 4.44674 13.6004H3.0029ZM10.2674 5.73289L9.8499 5.30039L10.6999 6.15039L10.2674 5.73289Z" fill="#82878C"/>
</g>
</svg>
