<svg width="16" height="16" viewBox="0 0 16 16" fill="none" xmlns="http://www.w3.org/2000/svg">
<path d="M3.90016 11.3997C4.46683 10.9663 5.10016 10.6247 5.80016 10.3747C6.50016 10.1247 7.2335 9.99967 8.00016 9.99967C8.76683 9.99967 9.50016 10.1247 10.2002 10.3747C10.9002 10.6247 11.5335 10.9663 12.1002 11.3997C12.4891 10.9441 12.7918 10.4275 13.0085 9.84967C13.2252 9.2719 13.3335 8.65523 13.3335 7.99967C13.3335 6.5219 12.8141 5.26356 11.7752 4.22467C10.7363 3.18579 9.47794 2.66634 8.00016 2.66634C6.52238 2.66634 5.26405 3.18579 4.22516 4.22467C3.18627 5.26356 2.66683 6.5219 2.66683 7.99967C2.66683 8.65523 2.77516 9.2719 2.99183 9.84967C3.2085 10.4275 3.51127 10.9441 3.90016 11.3997ZM8.00016 8.66634C7.34461 8.66634 6.79183 8.44134 6.34183 7.99134C5.89183 7.54134 5.66683 6.98856 5.66683 6.33301C5.66683 5.67745 5.89183 5.12467 6.34183 4.67467C6.79183 4.22467 7.34461 3.99967 8.00016 3.99967C8.65572 3.99967 9.2085 4.22467 9.6585 4.67467C10.1085 5.12467 10.3335 5.67745 10.3335 6.33301C10.3335 6.98856 10.1085 7.54134 9.6585 7.99134C9.2085 8.44134 8.65572 8.66634 8.00016 8.66634ZM8.00016 14.6663C7.07794 14.6663 6.21127 14.4913 5.40016 14.1413C4.58905 13.7913 3.8835 13.3163 3.2835 12.7163C2.6835 12.1163 2.2085 11.4108 1.8585 10.5997C1.5085 9.78856 1.3335 8.9219 1.3335 7.99967C1.3335 7.07745 1.5085 6.21079 1.8585 5.39967C2.2085 4.58856 2.6835 3.88301 3.2835 3.28301C3.8835 2.68301 4.58905 2.20801 5.40016 1.85801C6.21127 1.50801 7.07794 1.33301 8.00016 1.33301C8.92238 1.33301 9.78905 1.50801 10.6002 1.85801C11.4113 2.20801 12.1168 2.68301 12.7168 3.28301C13.3168 3.88301 13.7918 4.58856 14.1418 5.39967C14.4918 6.21079 14.6668 7.07745 14.6668 7.99967C14.6668 8.9219 14.4918 9.78856 14.1418 10.5997C13.7918 11.4108 13.3168 12.1163 12.7168 12.7163C12.1168 13.3163 11.4113 13.7913 10.6002 14.1413C9.78905 14.4913 8.92238 14.6663 8.00016 14.6663ZM8.00016 13.333C8.58905 13.333 9.14461 13.2469 9.66683 13.0747C10.1891 12.9025 10.6668 12.6552 11.1002 12.333C10.6668 12.0108 10.1891 11.7636 9.66683 11.5913C9.14461 11.4191 8.58905 11.333 8.00016 11.333C7.41127 11.333 6.85572 11.4191 6.3335 11.5913C5.81127 11.7636 5.3335 12.0108 4.90016 12.333C5.3335 12.6552 5.81127 12.9025 6.3335 13.0747C6.85572 13.2469 7.41127 13.333 8.00016 13.333ZM8.00016 7.33301C8.28905 7.33301 8.52794 7.23856 8.71683 7.04967C8.90572 6.86079 9.00016 6.6219 9.00016 6.33301C9.00016 6.04412 8.90572 5.80523 8.71683 5.61634C8.52794 5.42745 8.28905 5.33301 8.00016 5.33301C7.71127 5.33301 7.47238 5.42745 7.2835 5.61634C7.09461 5.80523 7.00016 6.04412 7.00016 6.33301C7.00016 6.6219 7.09461 6.86079 7.2835 7.04967C7.47238 7.23856 7.71127 7.33301 8.00016 7.33301Z" fill="#82878C"/>
</svg>
