<svg width="16" height="16" viewBox="0 0 16 16" fill="none" xmlns="http://www.w3.org/2000/svg">
<mask id="mask0_670_85" style="mask-type:alpha" maskUnits="userSpaceOnUse" x="0" y="0" width="16" height="16">
<rect width="16" height="16" fill="#D9D9D9"/>
</mask>
<g mask="url(#mask0_670_85)">
<path d="M5.5002 8.60026L8.43703 11.5371C8.55692 11.657 8.61686 11.7975 8.61686 11.9586C8.61686 12.1197 8.55575 12.264 8.43353 12.3916C8.31131 12.5085 8.16964 12.5669 8.00853 12.5669C7.84742 12.5669 7.70681 12.5068 7.5867 12.3866L3.62353 8.41843C3.56353 8.35832 3.51964 8.2932 3.49186 8.22309C3.46408 8.15298 3.4502 8.07782 3.4502 7.99759C3.4502 7.91748 3.46408 7.84232 3.49186 7.77209C3.51964 7.70198 3.56131 7.63915 3.61686 7.58359L7.58353 3.61693C7.70575 3.4947 7.84836 3.43359 8.01136 3.43359C8.17425 3.43359 8.31497 3.4947 8.43353 3.61693C8.55575 3.73548 8.61686 3.87621 8.61686 4.03909C8.61686 4.20209 8.55664 4.34382 8.4362 4.46426L5.5002 7.40026H12.2005C12.3704 7.40026 12.5129 7.45743 12.6279 7.57176C12.7428 7.68609 12.8002 7.82776 12.8002 7.99676C12.8002 8.16576 12.7428 8.30859 12.6279 8.42526C12.5129 8.54193 12.3704 8.60026 12.2005 8.60026H5.5002Z" fill="#82878C"/>
</g>
</svg>
