<svg width="16" height="16" viewBox="0 0 16 16" fill="none" xmlns="http://www.w3.org/2000/svg">
<path d="M3.99984 12.6663H5.99984V9.33301C5.99984 9.14412 6.06373 8.98579 6.1915 8.85801C6.31928 8.73023 6.47761 8.66634 6.6665 8.66634H9.33317C9.52206 8.66634 9.68039 8.73023 9.80817 8.85801C9.93595 8.98579 9.99984 9.14412 9.99984 9.33301V12.6663H11.9998V6.66634L7.99984 3.66634L3.99984 6.66634V12.6663ZM2.6665 12.6663V6.66634C2.6665 6.45523 2.71373 6.25523 2.80817 6.06634C2.90262 5.87745 3.03317 5.7219 3.19984 5.59967L7.19984 2.59967C7.43317 2.4219 7.69984 2.33301 7.99984 2.33301C8.29984 2.33301 8.5665 2.4219 8.79984 2.59967L12.7998 5.59967C12.9665 5.7219 13.0971 5.87745 13.1915 6.06634C13.2859 6.25523 13.3332 6.45523 13.3332 6.66634V12.6663C13.3332 13.033 13.2026 13.3469 12.9415 13.608C12.6804 13.8691 12.3665 13.9997 11.9998 13.9997H9.33317C9.14428 13.9997 8.98595 13.9358 8.85817 13.808C8.73039 13.6802 8.6665 13.5219 8.6665 13.333V9.99967H7.33317V13.333C7.33317 13.5219 7.26928 13.6802 7.1415 13.808C7.01373 13.9358 6.85539 13.9997 6.6665 13.9997H3.99984C3.63317 13.9997 3.31928 13.8691 3.05817 13.608C2.79706 13.3469 2.6665 13.033 2.6665 12.6663Z" fill="#82878C"/>
</svg>
