<svg width="16" height="16" viewBox="0 0 16 16" fill="none" xmlns="http://www.w3.org/2000/svg">
<mask id="mask0_573_329" style="mask-type:alpha" maskUnits="userSpaceOnUse" x="0" y="0" width="16" height="16">
<rect width="16" height="16" fill="#D9D9D9"/>
</mask>
<g mask="url(#mask0_573_329)">
<path d="M7.69419 10.4583C7.59419 10.4583 7.50044 10.441 7.41294 10.4062C7.32544 10.3715 7.24697 10.3194 7.17752 10.25L3.22627 6.29875C3.06877 6.14125 2.9935 5.96181 3.00044 5.76042C3.00738 5.55903 3.08725 5.38194 3.24002 5.22917C3.3928 5.07639 3.56988 5 3.77127 5C3.97266 5 4.14975 5.07639 4.30252 5.22917L7.69836 8.64583L11.115 5.22917C11.2678 5.07639 11.4449 5.00347 11.6463 5.01042C11.8477 5.01736 12.0247 5.09722 12.1775 5.25C12.3303 5.40278 12.4067 5.57986 12.4067 5.78125C12.4067 5.98264 12.3279 6.16167 12.1704 6.31833L8.21919 10.25C8.14419 10.3194 8.06294 10.3715 7.97544 10.4062C7.88794 10.441 7.79419 10.4583 7.69419 10.4583Z" fill="#82878C"/>
</g>
</svg>
