<svg width="16" height="16" viewBox="0 0 16 16" fill="none" xmlns="http://www.w3.org/2000/svg">
<path d="M2.66683 12.6667H5.3335V7.33333H2.66683V12.6667ZM6.66683 12.6667H9.3335V3.33333H6.66683V12.6667ZM10.6668 12.6667H13.3335V8.66667H10.6668V12.6667ZM1.3335 12.6667V7.33333C1.3335 6.96667 1.46405 6.65278 1.72516 6.39167C1.98627 6.13056 2.30016 6 2.66683 6H5.3335V3.33333C5.3335 2.96667 5.46405 2.65278 5.72516 2.39167C5.98627 2.13056 6.30016 2 6.66683 2H9.3335C9.70016 2 10.0141 2.13056 10.2752 2.39167C10.5363 2.65278 10.6668 2.96667 10.6668 3.33333V7.33333H13.3335C13.7002 7.33333 14.0141 7.46389 14.2752 7.725C14.5363 7.98611 14.6668 8.3 14.6668 8.66667V12.6667C14.6668 13.0333 14.5363 13.3472 14.2752 13.6083C14.0141 13.8694 13.7002 14 13.3335 14H2.66683C2.30016 14 1.98627 13.8694 1.72516 13.6083C1.46405 13.3472 1.3335 13.0333 1.3335 12.6667Z" fill="#82878C"/>
</svg>
