<svg width="16" height="16" viewBox="0 0 16 16" fill="none" xmlns="http://www.w3.org/2000/svg">
<path fill-rule="evenodd" clip-rule="evenodd" d="M7.96267 13.9047C7.64462 13.9047 7.3724 13.7881 7.14601 13.555C6.91962 13.3219 6.80572 13.0416 6.80572 12.7143H9.121C9.121 13.0416 9.0071 13.3219 8.78071 13.555C8.55432 13.7881 8.28212 13.9047 7.96267 13.9047ZM3.91267 12.119C3.74878 12.119 3.61128 12.062 3.50016 11.9479C3.38905 11.8337 3.3335 11.6924 3.3335 11.5237C3.3335 11.3551 3.38905 11.2137 3.50016 11.0997C3.61128 10.9856 3.74878 10.9286 3.91267 10.9286H4.49044V6.76186C4.49044 5.93843 4.73211 5.20686 5.21406 4.56686C5.696 3.927 6.32378 3.50786 7.09462 3.30943V2.89286C7.09462 2.64486 7.17933 2.434 7.34878 2.26043C7.51683 2.08671 7.7224 2 7.96267 2C8.20434 2 8.40989 2.08671 8.57794 2.26043C8.74739 2.434 8.83073 2.64486 8.83073 2.89286V3.08629C8.72517 3.30457 8.64739 3.52772 8.60017 3.75586C8.55156 3.98415 8.53211 4.21729 8.54183 4.45529C8.446 4.43543 8.35155 4.41814 8.25988 4.40329C8.16821 4.38829 8.06962 4.38086 7.96267 4.38086C7.32656 4.38086 6.78211 4.614 6.32795 5.08029C5.87517 5.54657 5.64878 6.10714 5.64878 6.76186V10.9286H10.2779V7.10414C10.4516 7.18343 10.6377 7.24543 10.8349 7.29014C11.0321 7.33471 11.2335 7.35714 11.4349 7.35714V10.9286H12.0141C12.1779 10.9286 12.3154 10.9856 12.4265 11.0997C12.5377 11.2137 12.5932 11.3551 12.5932 11.5237C12.5932 11.6924 12.5377 11.8337 12.4265 11.9479C12.3154 12.062 12.1779 12.119 12.0141 12.119H3.91267ZM11.4266 2.62714C12.4085 2.62714 13.2057 3.44757 13.2057 4.458C13.2057 5.46843 12.4085 6.28871 11.4266 6.28871C10.4432 6.28871 9.64601 5.46843 9.64601 4.458C9.64601 3.44757 10.4432 2.62714 11.4266 2.62714ZM11.4266 3.64214C11.8641 3.64214 12.2196 4.00772 12.2196 4.458C12.2196 4.90815 11.8641 5.27372 11.4266 5.27372C10.9891 5.27372 10.6335 4.90815 10.6335 4.458C10.6335 4.00772 10.9891 3.64214 11.4266 3.64214Z" fill="#82878C"/>
</svg>
