<svg width="16" height="16" viewBox="0 0 16 16" fill="none" xmlns="http://www.w3.org/2000/svg">
<mask id="mask0_670_86" style="mask-type:alpha" maskUnits="userSpaceOnUse" x="0" y="0" width="16" height="16">
<rect width="16" height="16" fill="#D9D9D9"/>
</mask>
<g mask="url(#mask0_670_86)">
<path d="M10.5002 8.60026H3.79986C3.62997 8.60026 3.48753 8.54309 3.37253 8.42876C3.25764 8.31443 3.2002 8.17276 3.2002 8.00376C3.2002 7.83476 3.25764 7.69193 3.37253 7.57526C3.48753 7.45859 3.62997 7.40026 3.79986 7.40026H10.5002L7.56336 4.46343C7.44347 4.34354 7.38353 4.20304 7.38353 4.04193C7.38353 3.88082 7.44464 3.73648 7.56686 3.60893C7.68908 3.49204 7.83075 3.43359 7.99186 3.43359C8.15297 3.43359 8.29358 3.4937 8.4137 3.61393L12.3769 7.58209C12.4369 7.6422 12.4808 7.70732 12.5085 7.77743C12.5363 7.84754 12.5502 7.92271 12.5502 8.00293C12.5502 8.08304 12.5363 8.15821 12.5085 8.22843C12.4808 8.29854 12.4391 8.36137 12.3835 8.41693L8.41686 12.3836C8.29464 12.5058 8.15575 12.5641 8.0002 12.5586C7.84464 12.553 7.70575 12.4918 7.58353 12.3749C7.46131 12.2474 7.4002 12.1021 7.4002 11.9391C7.4002 11.7762 7.46131 11.6355 7.58353 11.5169L10.5002 8.60026Z" fill="#82878C"/>
</g>
</svg>
