<svg width="144" height="52" viewBox="0 0 144 52" fill="none" xmlns="http://www.w3.org/2000/svg">
<g clip-path="url(#clip0_381_113)">
<path fill-rule="evenodd" clip-rule="evenodd" d="M45.6678 15.465C41.11 7.17795 31.7234 2.69828 22.3436 4.33381C10.2846 6.43669 2.21678 17.8462 4.33878 29.7965C6.46058 41.7469 17.9738 49.7418 30.0328 47.6391C36.67 46.4816 42.4166 42.3974 45.6512 36.5382C45.6512 36.5382 41.7106 34.0443 39.6094 33.4273C36.7482 32.587 33.6748 35.2391 33.1388 35.8719C31.799 37.4537 29.0592 38.5287 28.4346 38.6378C21.3888 39.8664 14.6618 35.1951 13.422 28.2125C12.1822 21.2302 16.896 14.564 23.9418 13.3354C26.163 12.9479 28.3846 13.1475 30.419 13.8442C32.1748 14.4455 33.6706 16.4598 35.1466 17.6063C38.1596 19.9473 41.41 17.8741 41.41 17.8741L45.6678 15.465Z" fill="#17252A"/>
<path fill-rule="evenodd" clip-rule="evenodd" d="M18.5371 25.9446C18.5371 25.0349 18.7313 24.1097 19.0829 23.2692C19.4223 22.4573 19.9433 21.7048 20.5705 21.0832C21.1975 20.4619 21.9569 19.9456 22.7763 19.609C24.7141 18.8131 27.0155 18.7023 28.7267 19.8691C29.9181 20.6813 29.8769 20.9374 31.1579 21.9983C32.5807 23.177 34.2905 23.8598 36.1515 23.8951C37.2093 23.9151 38.5165 23.6652 39.5201 23.3257C42.1383 22.4399 44.5033 20.3485 47.0693 22.8914C47.8625 23.6775 48.2513 24.5561 48.3327 25.4252C48.4067 26.2144 48.4163 25.6563 48.3327 26.5491C48.2513 27.4182 47.8625 28.2969 47.0693 29.0829C44.5033 31.6258 42.1383 29.5342 39.5201 28.6487C38.5165 28.3091 37.2093 28.0592 36.1515 28.0792C34.2905 28.1145 32.5807 28.7971 31.1579 29.9758C29.8769 31.0369 29.9181 31.2928 28.7267 32.1052C27.0155 33.272 24.7141 33.1612 22.7763 32.3653C21.9569 32.0287 21.1975 31.5124 20.5705 30.8909C19.9433 30.2695 19.4223 29.517 19.0829 28.7051C18.7313 27.8646 18.5371 26.9394 18.5371 26.0295V25.9446Z" fill="#0CAD69"/>
<path d="M60.3663 8.62891H53.6445V43.3816H60.3663V8.62891Z" fill="#17252A"/>
<path d="M65.2969 14.7925V8.62891H72.0187V14.7925H65.2969ZM65.2969 43.3818V18.206H72.0187V43.3818H65.2969Z" fill="#17252A"/>
<path d="M100.056 43.3813H93.3344V30.5327C93.3344 27.8144 93.1908 26.0562 92.9038 25.258C92.6166 24.4601 92.1502 23.8397 91.5044 23.3972C90.8584 22.9548 90.081 22.7334 89.172 22.7334C88.0078 22.7334 86.9632 23.0495 86.0384 23.6816C85.1134 24.3138 84.4794 25.1514 84.1366 26.1945C83.7936 27.2374 83.6222 29.1655 83.6222 31.9787V43.3813H76.9004V18.2055H83.1438V21.9037C85.3606 19.059 88.1514 17.6367 91.5162 17.6367C92.9994 17.6367 94.355 17.9013 95.583 18.4309C96.8108 18.9603 97.7398 19.6359 98.3698 20.4577C98.9996 21.2794 99.4382 22.2119 99.6854 23.255C99.9326 24.298 100.056 25.7914 100.056 27.7353V43.3813Z" fill="#17252A"/>
<path d="M104.914 14.7925V8.62891H111.636V14.7925H104.914ZM104.914 43.3818V18.206H111.636V43.3818H104.914Z" fill="#17252A"/>
<path d="M113.336 43.3808L122.498 30.4137L113.719 18.2051H121.924L126.421 25.1271L131.157 18.2051H139.051L130.44 30.1291L139.841 43.3808H131.588L126.421 35.5815L121.206 43.3808H113.336Z" fill="#17252A"/>
</g>
<defs>
<clipPath id="clip0_381_113">
<rect width="136" height="44" fill="white" transform="translate(4 4)"/>
</clipPath>
</defs>
</svg>
